PathFileType	4	(X/Y/Z)	/Users/mathieubourgeois/Desktop/Analyse/Traitement/Sujet_05/Data/Transformed_Sujet_05_velo_60.trc
DataRate	CameraRate	NumFrames	NumMarkers	Units	OrigDataRate	OrigDataStartFrame	OrigNumFrames
120.000000	120.000000	5	36	mm	120.000000	481	1925
Frame#	Time	RFHD			RANE			STRN			LANI			LKNE			T10			RHUM			RWRB			C7			LFWT			LTOE			RTOE			LWRA			LBWT			RBWT			RFWT			LKNI			RKNI			RKNE			LANE			RANI			LHEE			RHEE			LHUM			LRAD			RRAD			RWRA			LWRB			LFHD			LBHD			RBHD			RSHO			LSHO			CLAV			LCAR			RCAR			
		X1	Y1	Z1	X2	Y2	Z2	X3	Y3	Z3	X4	Y4	Z4	X5	Y5	Z5	X6	Y6	Z6	X7	Y7	Z7	X8	Y8	Z8	X9	Y9	Z9	X10	Y10	Z10	X11	Y11	Z11	X12	Y12	Z12	X13	Y13	Z13	X14	Y14	Z14	X15	Y15	Z15	X16	Y16	Z16	X17	Y17	Z17	X18	Y18	Z18	X19	Y19	Z19	X20	Y20	Z20	X21	Y21	Z21	X22	Y22	Z22	X23	Y23	Z23	X24	Y24	Z24	X25	Y25	Z25	X26	Y26	Z26	X27	Y27	Z27	X28	Y28	Z28	X29	Y29	Z29	X30	Y30	Z30	X31	Y31	Z31	X32	Y32	Z32	X33	Y33	Z33	X34	Y34	Z34	X35	Y35	Z35	X36	Y36	Z36	

482	4.008333333333333	133.6112670898437	1314.385620117188	123.2075119018554	-371.8646545410156	513.574951171875	186.2174530029296	-228.1246185302734	1161.508056640625	28.14773178100576	-102.7092208862305	346.4160766601562	-61.6276779174805	-129.7480316162109	740.4177856445312	-147.0971069335938	-341.5773620605469	1363.702270507812	42.0912170410155	18.15691375732419	1025.853149414062	201.6699066162109	241.7069854736328	890.4186401367188	247.6656036376953	-100.8443222045898	1412.6748046875	40.86082458496084	-370.6457214355469	1078.741577148438	-91.4254608154298	53.07870483398439	261.1197204589844	-96.54079437255861	-279.5249938964844	335.3760375976562	157.2684783935546	274.131103515625	930.7017822265625	-147.0659332275391	-541.4107055664062	1100.5546875	-23.42997550964369	-532.9266967773438	1111.65283203125	111.8710632324217	-368.1285400390625	1083.410522460938	155.8652038574218	-116.8274154663086	707.216064453125	-44.67722320556646	-104.065414428711	745.5499877929688	107.4950408935546	-100.8882446289063	785.9183349609375	213.6696777343749	-136.7784118652343	347.8499755859375	-138.7232513427735	-344.6713562011719	496.2634582519531	105.7685241699218	-183.4991149902344	306.5299072265625	-93.64012908935551	-435.285888671875	527.0563354492188	140.6374359130859	18.16708946228029	1043.11376953125	-150.6145629882813	67.70507812500003	1074.518798828125	-190.0359497070313	57.66308212280271	1059.649780273438	252.7628784179687	272.7734375	934.25	195.2486572265625	239.2350463867188	883.5491333007812	-182.1329956054688	148.4098510742188	1311.025512695312	-23.37130355834967	41.79761123657227	1420.5419921875	-42.86839294433602	26.92131996154784	1447.670043945312	89.64397430419913	-40.93833923339846	1313.162231445312	182.3756256103515	-63.66755294799803	1327.808471679688	-110.4751892089845	-103.9505233764648	1271.172973632812	37.9894256591796	316.7515869140625	925.6294555664062	-224.5906219482422	319.7260437011718	928.078857421875	284.0785522460938	
483	4.016666666666667	133.6416625976562	1314.40869140625	124.6363143920898	-368.4609985351562	522.1130981445312	186.3253326416015	-227.5402526855469	1161.668334960938	28.33571624755849	-106.3921890258789	338.5387573242188	-61.8717193603516	-135.5593872070312	732.8541259765625	-146.4033966064454	-341.2771606445312	1363.631713867188	42.25314712524401	18.08494567871091	1025.714721679688	201.9234619140624	241.7402648925781	890.3389892578125	247.7105560302734	-100.5744323730469	1412.821899414062	41.74566268920888	-370.3684997558594	1078.229125976562	-92.11911773681652	48.84709548950197	251.8491973876953	-96.57684326171876	-275.1626586914062	344.5345153808594	157.3989257812499	274.1654968261719	930.7302856445312	-147.0525970458985	-540.8119506835938	1100.33984375	-23.8349819183351	-532.49560546875	1111.696044921875	111.3441925048827	-367.7226867675781	1083.69140625	155.5011749267577	-125.2244720458984	699.1264038085938	-41.88711929321295	-99.5818328857422	752.7985229492188	108.2521667480468	-96.80847930908206	793.0205688476562	214.5720214843749	-140.546157836914	339.9875793457031	-138.8031768798829	-341.259033203125	504.8804931640625	105.8764419555663	-187.1522521972656	298.9710388183594	-93.56406402587895	-432.0999450683594	535.2279663085938	141.0133666992187	18.29276466369631	1043.400268554688	-150.6154479980469	67.92005920410159	1074.77587890625	-189.8970336914063	57.57361221313474	1059.428344726562	253.0704498291015	272.7579345703125	934.2510375976562	195.3184509277343	239.2136993408203	883.5480346679688	-182.1199188232422	148.9307098388672	1311.244506835938	-21.91713142395026	42.38464736938477	1420.755126953125	-41.62994003295906	27.09043693542479	1447.730590820312	90.88287353515616	-41.01081466674807	1313.098266601562	183.1832885742187	-63.12738800048827	1328.1689453125	-109.6469268798829	-103.7001037597656	1271.411254882812	38.54452514648428	316.7340698242188	925.6390380859375	-224.5717315673828	319.7313842773437	928.0363159179688	284.1141662597656	
484	4.025	133.6575317382812	1314.438354492188	126.0444869995116	-364.8082275390625	530.4046020507812	186.470474243164	-226.9846343994141	1161.776489257812	28.56723976135244	-110.269058227539	330.9853820800781	-62.01531600952152	-141.4998626708984	725.5855102539062	-145.7847290039063	-341.0373229980469	1363.5869140625	42.44600677490222	18.01146125793455	1025.577392578125	202.1997985839843	241.7848968505859	890.26513671875	247.7498168945312	-100.3086776733398	1412.9833984375	42.60619354248037	-370.1314697265625	1077.702514648438	-92.72715759277355	44.18202972412111	242.75634765625	-96.65869140625001	-270.2068176269531	353.7144470214844	157.4907836914062	274.1528930664062	930.73291015625	-147.031723022461	-540.2809448242188	1100.140869140625	-24.1093959808351	-532.080322265625	1111.737670898438	110.9337844848631	-367.3457946777344	1083.861694335938	155.1931762695311	-131.2091064453125	691.7520751953125	-41.37560272216803	-95.0116424560547	759.802490234375	108.852439880371	-92.76248931884768	800.212158203125	215.434829711914	-144.837890625	332.5015869140625	-138.7398834228516	-337.66748046875	513.332275390625	105.9452438354491	-191.3376159667969	292.1092834472656	-93.78108978271489	-428.6332702636719	543.2224731445312	141.2227630615234	18.43034172058107	1043.669189453125	-150.5996093750001	67.89532470703128	1074.988403320312	-190.0403900146485	57.39386367797849	1059.400634765625	253.5208740234374	272.7442932128906	934.2227172851562	195.3728485107422	239.183349609375	883.5656127929688	-182.0900268554688	149.4337310791016	1311.476806640625	-20.48396682739264	42.92065811157227	1420.982666015625	-40.38387298583992	27.20825386047362	1447.807983398438	92.06691741943351	-41.01622009277346	1313.031005859375	184.0342254638671	-62.56465911865233	1328.540283203125	-108.8508605957032	-103.3653106689453	1271.632202148438	39.13448715209952	316.7019958496094	925.6471557617188	-224.554183959961	319.7688598632812	928.0091552734375	284.1539001464844	
485	4.033333333333333	133.7047882080078	1314.452758789062	127.3605194091796	-360.841796875	538.362060546875	186.6905670166015	-226.3950500488281	1161.69775390625	28.85820579528799	-114.5132827758789	323.7549743652344	-62.11695480346683	-147.5736541748047	718.6587524414062	-145.2132873535157	-340.8042907714844	1363.552612304688	42.65634536743151	17.94817733764646	1025.436401367188	202.4761047363281	241.8174896240234	890.205810546875	247.8050079345703	-100.0825576782227	1413.15283203125	43.53119659423818	-369.8626403808594	1077.203369140625	-93.32376098632824	39.06882858276369	233.9812469482422	-96.76527404785158	-264.6744995117188	362.662841796875	157.6178283691406	274.1451416015625	930.752685546875	-147.0087432861328	-539.7263793945312	1099.93896484375	-24.35663414001478	-531.6021118164062	1111.8017578125	110.5279235839842	-366.9365844726562	1083.94384765625	154.8834533691405	-137.1853942871094	684.7398681640625	-40.95079803466803	-88.78941345214845	767.7088012695312	109.4267425537109	-88.877799987793	807.6265258789062	216.3160400390624	-149.4190063476562	325.3455200195312	-138.7180633544922	-334.3212280273438	521.4961547851562	105.7551040649413	-195.9494171142578	285.6423645019531	-93.98242950439457	-424.8972778320312	550.8339233398438	141.4647979736327	18.52073287963869	1043.953979492188	-150.5567779541016	68.11446380615237	1075.296752929688	-189.8600769042969	57.27875518798825	1059.139038085938	253.9019012451171	272.7230529785156	934.2032470703125	195.4272918701172	239.1444549560547	883.5991821289062	-182.0671081542969	149.9032897949219	1311.707153320312	-19.11668777465827	43.43347167968751	1421.2626953125	-39.20325851440438	25.8997287750244	1448.556396484375	93.95388793945304	-41.09051895141604	1312.928466796875	184.8314971923827	-62.04062652587889	1328.9375	-108.0933761596681	-103.0745086669922	1271.838012695312	39.6930046081542	316.6781921386719	925.6692504882812	-224.5225372314453	319.7973327636718	927.9730224609375	284.1835327148438	
486	4.041666666666667	133.7271575927734	1314.459838867188	128.5920410156249	-356.5884704589844	545.9772338867188	186.8770294189452	-226.0922241210938	1161.812133789062	29.10410499572744	-119.3061447143555	316.8761291503906	-62.25722885131839	-153.7185363769531	712.0537719726562	-144.7034301757813	-340.5446472167969	1363.51318359375	42.93697738647448	17.92413139343259	1025.309814453125	202.7496948242187	241.8515014648437	890.144287109375	247.880859375	-99.84552764892578	1413.308715820312	44.37916946411123	-369.6120910644531	1076.7421875	-93.81080627441418	33.53773117065431	225.5312957763672	-96.82785797119142	-260.6958618164062	370.7926025390625	156.4069824218749	274.148193359375	930.783203125	-146.9647521972657	-539.1980590820312	1099.770751953125	-24.55826377868666	-531.1500854492188	1111.87353515625	110.247947692871	-366.5608215332031	1083.960327148438	154.6411743164061	-143.2308654785156	678.1612548828125	-40.56298828125006	-84.49329376220705	775.3322143554688	110.1558380126953	-84.98552703857425	814.999267578125	217.1465454101562	-154.4986877441406	318.54345703125	-138.666732788086	-328.3306579589844	529.2113647460938	106.6382827758788	-200.9495239257812	279.2321472167969	-93.47502136230473	-420.8514709472656	558.0360717773438	141.7320709228515	18.64114761352541	1044.261596679688	-150.4433135986329	68.53212738037112	1075.685913085938	-189.3837432861329	57.30540847778317	1058.705688476562	254.1193542480468	272.7019348144531	934.1693725585938	195.5020904541015	239.1177215576172	883.6421508789062	-182.0297241210938	150.3390655517578	1311.95166015625	-17.82487106323249	43.84590530395509	1421.506591796875	-38.03984451293953	26.02606964111327	1448.642944335938	95.13773345947257	-41.12503433227541	1312.828735351562	185.6132202148437	-61.5541648864746	1329.344116210938	-107.2927398681642	-102.8030242919922	1272.01123046875	40.2941131591796	316.6639099121094	925.704345703125	-224.4688873291016	319.8298339843749	927.9383544921875	284.2467651367188	
